<svg width="8" height="35" viewBox="0 0 8 35" fill="none" xmlns="http://www.w3.org/2000/svg">
<g clip-path="url(#clip0_494_1099)">
<path d="M4.5 1C4.5 0.723858 4.27614 0.5 4 0.5C3.72386 0.5 3.5 0.723858 3.5 1L4.5 1ZM3.64645 34.3536C3.84171 34.5488 4.15829 34.5488 4.35355 34.3536L7.53553 31.1716C7.7308 30.9763 7.7308 30.6597 7.53553 30.4645C7.34027 30.2692 7.02369 30.2692 6.82843 30.4645L4 33.2929L1.17157 30.4645C0.97631 30.2692 0.659728 30.2692 0.464465 30.4645C0.269203 30.6597 0.269203 30.9763 0.464465 31.1716L3.64645 34.3536ZM3.5 1L3.5 34L4.5 34L4.5 1L3.5 1Z" fill="#3FD4B1"/>
</g>
<defs>
<clipPath id="clip0_494_1099">
<rect width="8" height="35" fill="white"/>
</clipPath>
</defs>
</svg>
