<svg width="1504" height="231" viewBox="0 0 1504 231" fill="none" xmlns="http://www.w3.org/2000/svg">
<rect y="115.645" width="337" height="115" rx="20" fill="white"/>
<path d="M33.6445 89.6445V24.5938H10.5391V16.3672H65.8906V24.5938H42.7852V89.6445H33.6445ZM72.4191 89.6445V16.3672H81.5597V48.0547H121.778V16.3672H130.919V89.6445H121.778V56.2812H81.5597V89.6445H72.4191ZM142.018 89.6445V16.3672H187.416V24.5938H151.158V48.1055H185.537V56.2305H151.158V81.418H187.416V89.6445H142.018ZM196.382 89.6445V16.3672H223.855C228.561 16.3672 232.657 17.2812 236.144 19.1094C239.665 20.9036 242.39 23.4427 244.32 26.7266C246.249 29.9766 247.214 33.8021 247.214 38.2031V38.3047C247.214 43.3828 245.894 47.7839 243.253 51.5078C240.647 55.1979 237.058 57.7708 232.488 59.2266L249.449 89.6445H238.734L223.042 60.6484C222.941 60.6484 222.839 60.6484 222.738 60.6484C222.67 60.6484 222.585 60.6484 222.484 60.6484H205.523V89.6445H196.382ZM205.523 52.5742H223.042C227.748 52.5742 231.37 51.3555 233.91 48.918C236.482 46.4805 237.769 43.0104 237.769 38.5078V38.4062C237.769 34.0391 236.415 30.6367 233.706 28.1992C231.032 25.7279 227.342 24.4922 222.636 24.4922H205.523V52.5742ZM255.622 89.6445V16.3672H301.02V24.5938H264.762V48.1055H299.141V56.2305H264.762V81.418H301.02V89.6445H255.622ZM322.354 89.6445L349.624 16.3672H356.378V27.3359H354.042L331.952 89.6445H322.354ZM334.846 68.6719L337.893 60.9023H370.393L373.44 68.6719H334.846ZM376.284 89.6445L354.245 27.3359V16.3672H358.663L385.882 89.6445H376.284ZM391.191 89.6445V16.3672H418.664C423.37 16.3672 427.466 17.2812 430.953 19.1094C434.474 20.9036 437.199 23.4427 439.129 26.7266C441.058 29.9766 442.023 33.8021 442.023 38.2031V38.3047C442.023 43.3828 440.703 47.7839 438.062 51.5078C435.456 55.1979 431.867 57.7708 427.297 59.2266L444.258 89.6445H433.543L417.851 60.6484C417.75 60.6484 417.648 60.6484 417.547 60.6484C417.479 60.6484 417.394 60.6484 417.293 60.6484H400.332V89.6445H391.191ZM400.332 52.5742H417.851C422.557 52.5742 426.18 51.3555 428.719 48.918C431.292 46.4805 432.578 43.0104 432.578 38.5078V38.4062C432.578 34.0391 431.224 30.6367 428.515 28.1992C425.841 25.7279 422.151 24.4922 417.445 24.4922H400.332V52.5742ZM450.431 89.6445V16.3672H495.829V24.5938H459.571V48.1055H493.95V56.2305H459.571V81.418H495.829V89.6445H450.431ZM521.835 89.6445V83.3477L547.632 56.4336C550.95 52.9805 553.472 50.1367 555.198 47.9023C556.959 45.6341 558.161 43.6029 558.804 41.8086C559.481 40.0143 559.82 38.1016 559.82 36.0703V35.9688C559.82 33.4635 559.227 31.2461 558.042 29.3164C556.891 27.3867 555.283 25.8802 553.218 24.7969C551.187 23.6797 548.834 23.1211 546.159 23.1211C543.112 23.1211 540.387 23.7643 537.984 25.0508C535.58 26.3034 533.684 27.9961 532.296 30.1289C530.908 32.2617 530.214 34.6484 530.214 37.2891V37.543H521.378V37.2383C521.378 33.0065 522.478 29.2318 524.679 25.9141C526.879 22.5625 529.842 19.9388 533.566 18.043C537.323 16.1133 541.471 15.1484 546.007 15.1484C550.442 15.1484 554.386 16.0456 557.839 17.8398C561.292 19.6341 564.001 22.0716 565.964 25.1523C567.961 28.2331 568.96 31.6862 568.96 35.5117V35.6133C568.96 38.2878 568.452 40.8776 567.437 43.3828C566.455 45.888 564.728 48.7148 562.257 51.8633C559.786 54.9779 556.299 58.8372 551.796 63.4414L531.687 84.0586L534.378 78.4219V84.0586L531.687 81.5195H570.179V89.6445H521.835ZM612.13 89.6445L592.173 16.3672H601.72L616.497 76.543H616.701L633.306 16.3672H642.548L659.154 76.543H659.357L674.134 16.3672H683.681L663.724 89.6445H655.091L638.029 30.9414H637.826L620.763 89.6445H612.13ZM677.514 89.6445L704.784 16.3672H711.538V27.3359H709.202L687.112 89.6445H677.514ZM690.006 68.6719L693.053 60.9023H725.553L728.6 68.6719H690.006ZM731.444 89.6445L709.405 27.3359V16.3672H713.823L741.042 89.6445H731.444ZM757.371 89.6445V58.1094L731.371 16.3672H741.781L761.789 49.2734H762.093L782.101 16.3672H792.511L766.511 58.1094V89.6445H757.371ZM818.184 90.8633C812.903 90.8633 808.248 90.0508 804.22 88.4258C800.225 86.7669 797.042 84.4141 794.673 81.3672C792.337 78.3203 791.016 74.7148 790.712 70.5508L790.661 69.8398H799.802L799.903 70.5508C800.276 72.9883 801.274 75.1042 802.899 76.8984C804.524 78.6589 806.674 80.0299 809.348 81.0117C812.057 81.9596 815.171 82.4336 818.692 82.4336C822.213 82.4336 825.26 81.9427 827.833 80.9609C830.406 79.9453 832.386 78.5065 833.774 76.6445C835.196 74.7826 835.907 72.599 835.907 70.0938V70.043C835.907 66.8268 834.79 64.2539 832.555 62.3242C830.321 60.3945 826.682 58.8711 821.638 57.7539L813.513 55.9766C806.369 54.3854 801.071 51.9479 797.618 48.6641C794.199 45.3464 792.489 41.013 792.489 35.6641V35.6133C792.523 31.5846 793.64 28.0469 795.841 25C798.041 21.9193 801.071 19.5156 804.93 17.7891C808.824 16.0286 813.276 15.1484 818.286 15.1484C823.059 15.1484 827.325 16.0117 831.083 17.7383C834.841 19.431 837.837 21.8008 840.071 24.8477C842.339 27.8945 843.609 31.4154 843.88 35.4102L843.93 36.1719H834.79L834.688 35.4609C834.316 32.9557 833.402 30.8229 831.946 29.0625C830.49 27.3021 828.578 25.9479 826.208 25C823.872 24.0521 821.147 23.5781 818.032 23.5781C814.782 23.5781 811.938 24.069 809.501 25.0508C807.063 26.0326 805.167 27.4036 803.813 29.1641C802.493 30.9245 801.833 32.9896 801.833 35.3594V35.4102C801.833 38.3893 802.967 40.8438 805.235 42.7734C807.503 44.7031 811.024 46.1927 815.798 47.2422L823.923 49.0195C828.933 50.1029 832.996 51.5417 836.11 53.3359C839.259 55.1302 841.561 57.3646 843.016 60.0391C844.506 62.6797 845.251 65.862 845.251 69.5859V69.6367C845.251 73.9701 844.151 77.7279 841.95 80.9102C839.783 84.0924 836.669 86.5469 832.606 88.2734C828.578 90 823.77 90.8633 818.184 90.8633ZM889.589 89.6445V24.5938H866.483V16.3672H921.835V24.5938H898.73V89.6445H889.589ZM954.77 90.8633C947.83 90.8633 941.82 89.3229 936.742 86.2422C931.698 83.1615 927.805 78.7943 925.063 73.1406C922.32 67.487 920.949 60.7839 920.949 53.0312V52.9297C920.949 45.1771 922.32 38.4909 925.063 32.8711C927.839 27.2174 931.749 22.8503 936.793 19.7695C941.871 16.6888 947.863 15.1484 954.77 15.1484C961.676 15.1484 967.651 16.6888 972.695 19.7695C977.74 22.8503 981.633 27.2174 984.375 32.8711C987.117 38.4909 988.488 45.1771 988.488 52.9297V53.0312C988.488 60.7839 987.117 67.487 984.375 73.1406C981.633 78.7943 977.74 83.1615 972.695 86.2422C967.685 89.3229 961.71 90.8633 954.77 90.8633ZM954.77 82.4336C959.814 82.4336 964.147 81.2318 967.77 78.8281C971.426 76.3906 974.236 72.9714 976.199 68.5703C978.163 64.1693 979.145 58.9896 979.145 53.0312V52.9297C979.145 46.9375 978.146 41.7409 976.149 37.3398C974.185 32.9388 971.375 29.5534 967.719 27.1836C964.063 24.7799 959.746 23.5781 954.77 23.5781C949.793 23.5781 945.46 24.7799 941.77 27.1836C938.113 29.5534 935.287 32.9388 933.289 37.3398C931.292 41.707 930.293 46.9036 930.293 52.9297V53.0312C930.293 59.0234 931.292 64.2201 933.289 68.6211C935.287 73.0221 938.113 76.4245 941.77 78.8281C945.426 81.2318 949.759 82.4336 954.77 82.4336Z" fill="white"/>
<path d="M33.6445 89.6445V24.5938H10.5391V16.3672H65.8906V24.5938H42.7852V89.6445H33.6445ZM72.4191 89.6445V16.3672H81.5597V48.0547H121.778V16.3672H130.919V89.6445H121.778V56.2812H81.5597V89.6445H72.4191ZM142.018 89.6445V16.3672H187.416V24.5938H151.158V48.1055H185.537V56.2305H151.158V81.418H187.416V89.6445H142.018ZM196.382 89.6445V16.3672H223.855C228.561 16.3672 232.657 17.2812 236.144 19.1094C239.665 20.9036 242.39 23.4427 244.32 26.7266C246.249 29.9766 247.214 33.8021 247.214 38.2031V38.3047C247.214 43.3828 245.894 47.7839 243.253 51.5078C240.647 55.1979 237.058 57.7708 232.488 59.2266L249.449 89.6445H238.734L223.042 60.6484C222.941 60.6484 222.839 60.6484 222.738 60.6484C222.67 60.6484 222.585 60.6484 222.484 60.6484H205.523V89.6445H196.382ZM205.523 52.5742H223.042C227.748 52.5742 231.37 51.3555 233.91 48.918C236.482 46.4805 237.769 43.0104 237.769 38.5078V38.4062C237.769 34.0391 236.415 30.6367 233.706 28.1992C231.032 25.7279 227.342 24.4922 222.636 24.4922H205.523V52.5742ZM255.622 89.6445V16.3672H301.02V24.5938H264.762V48.1055H299.141V56.2305H264.762V81.418H301.02V89.6445H255.622ZM322.354 89.6445L349.624 16.3672H356.378V27.3359H354.042L331.952 89.6445H322.354ZM334.846 68.6719L337.893 60.9023H370.393L373.44 68.6719H334.846ZM376.284 89.6445L354.245 27.3359V16.3672H358.663L385.882 89.6445H376.284ZM391.191 89.6445V16.3672H418.664C423.37 16.3672 427.466 17.2812 430.953 19.1094C434.474 20.9036 437.199 23.4427 439.129 26.7266C441.058 29.9766 442.023 33.8021 442.023 38.2031V38.3047C442.023 43.3828 440.703 47.7839 438.062 51.5078C435.456 55.1979 431.867 57.7708 427.297 59.2266L444.258 89.6445H433.543L417.851 60.6484C417.75 60.6484 417.648 60.6484 417.547 60.6484C417.479 60.6484 417.394 60.6484 417.293 60.6484H400.332V89.6445H391.191ZM400.332 52.5742H417.851C422.557 52.5742 426.18 51.3555 428.719 48.918C431.292 46.4805 432.578 43.0104 432.578 38.5078V38.4062C432.578 34.0391 431.224 30.6367 428.515 28.1992C425.841 25.7279 422.151 24.4922 417.445 24.4922H400.332V52.5742ZM450.431 89.6445V16.3672H495.829V24.5938H459.571V48.1055H493.95V56.2305H459.571V81.418H495.829V89.6445H450.431ZM521.835 89.6445V83.3477L547.632 56.4336C550.95 52.9805 553.472 50.1367 555.198 47.9023C556.959 45.6341 558.161 43.6029 558.804 41.8086C559.481 40.0143 559.82 38.1016 559.82 36.0703V35.9688C559.82 33.4635 559.227 31.2461 558.042 29.3164C556.891 27.3867 555.283 25.8802 553.218 24.7969C551.187 23.6797 548.834 23.1211 546.159 23.1211C543.112 23.1211 540.387 23.7643 537.984 25.0508C535.58 26.3034 533.684 27.9961 532.296 30.1289C530.908 32.2617 530.214 34.6484 530.214 37.2891V37.543H521.378V37.2383C521.378 33.0065 522.478 29.2318 524.679 25.9141C526.879 22.5625 529.842 19.9388 533.566 18.043C537.323 16.1133 541.471 15.1484 546.007 15.1484C550.442 15.1484 554.386 16.0456 557.839 17.8398C561.292 19.6341 564.001 22.0716 565.964 25.1523C567.961 28.2331 568.96 31.6862 568.96 35.5117V35.6133C568.96 38.2878 568.452 40.8776 567.437 43.3828C566.455 45.888 564.728 48.7148 562.257 51.8633C559.786 54.9779 556.299 58.8372 551.796 63.4414L531.687 84.0586L534.378 78.4219V84.0586L531.687 81.5195H570.179V89.6445H521.835ZM612.13 89.6445L592.173 16.3672H601.72L616.497 76.543H616.701L633.306 16.3672H642.548L659.154 76.543H659.357L674.134 16.3672H683.681L663.724 89.6445H655.091L638.029 30.9414H637.826L620.763 89.6445H612.13ZM677.514 89.6445L704.784 16.3672H711.538V27.3359H709.202L687.112 89.6445H677.514ZM690.006 68.6719L693.053 60.9023H725.553L728.6 68.6719H690.006ZM731.444 89.6445L709.405 27.3359V16.3672H713.823L741.042 89.6445H731.444ZM757.371 89.6445V58.1094L731.371 16.3672H741.781L761.789 49.2734H762.093L782.101 16.3672H792.511L766.511 58.1094V89.6445H757.371ZM818.184 90.8633C812.903 90.8633 808.248 90.0508 804.22 88.4258C800.225 86.7669 797.042 84.4141 794.673 81.3672C792.337 78.3203 791.016 74.7148 790.712 70.5508L790.661 69.8398H799.802L799.903 70.5508C800.276 72.9883 801.274 75.1042 802.899 76.8984C804.524 78.6589 806.674 80.0299 809.348 81.0117C812.057 81.9596 815.171 82.4336 818.692 82.4336C822.213 82.4336 825.26 81.9427 827.833 80.9609C830.406 79.9453 832.386 78.5065 833.774 76.6445C835.196 74.7826 835.907 72.599 835.907 70.0938V70.043C835.907 66.8268 834.79 64.2539 832.555 62.3242C830.321 60.3945 826.682 58.8711 821.638 57.7539L813.513 55.9766C806.369 54.3854 801.071 51.9479 797.618 48.6641C794.199 45.3464 792.489 41.013 792.489 35.6641V35.6133C792.523 31.5846 793.64 28.0469 795.841 25C798.041 21.9193 801.071 19.5156 804.93 17.7891C808.824 16.0286 813.276 15.1484 818.286 15.1484C823.059 15.1484 827.325 16.0117 831.083 17.7383C834.841 19.431 837.837 21.8008 840.071 24.8477C842.339 27.8945 843.609 31.4154 843.88 35.4102L843.93 36.1719H834.79L834.688 35.4609C834.316 32.9557 833.402 30.8229 831.946 29.0625C830.49 27.3021 828.578 25.9479 826.208 25C823.872 24.0521 821.147 23.5781 818.032 23.5781C814.782 23.5781 811.938 24.069 809.501 25.0508C807.063 26.0326 805.167 27.4036 803.813 29.1641C802.493 30.9245 801.833 32.9896 801.833 35.3594V35.4102C801.833 38.3893 802.967 40.8438 805.235 42.7734C807.503 44.7031 811.024 46.1927 815.798 47.2422L823.923 49.0195C828.933 50.1029 832.996 51.5417 836.11 53.3359C839.259 55.1302 841.561 57.3646 843.016 60.0391C844.506 62.6797 845.251 65.862 845.251 69.5859V69.6367C845.251 73.9701 844.151 77.7279 841.95 80.9102C839.783 84.0924 836.669 86.5469 832.606 88.2734C828.578 90 823.77 90.8633 818.184 90.8633ZM889.589 89.6445V24.5938H866.483V16.3672H921.835V24.5938H898.73V89.6445H889.589ZM954.77 90.8633C947.83 90.8633 941.82 89.3229 936.742 86.2422C931.698 83.1615 927.805 78.7943 925.063 73.1406C922.32 67.487 920.949 60.7839 920.949 53.0312V52.9297C920.949 45.1771 922.32 38.4909 925.063 32.8711C927.839 27.2174 931.749 22.8503 936.793 19.7695C941.871 16.6888 947.863 15.1484 954.77 15.1484C961.676 15.1484 967.651 16.6888 972.695 19.7695C977.74 22.8503 981.633 27.2174 984.375 32.8711C987.117 38.4909 988.488 45.1771 988.488 52.9297V53.0312C988.488 60.7839 987.117 67.487 984.375 73.1406C981.633 78.7943 977.74 83.1615 972.695 86.2422C967.685 89.3229 961.71 90.8633 954.77 90.8633ZM954.77 82.4336C959.814 82.4336 964.147 81.2318 967.77 78.8281C971.426 76.3906 974.236 72.9714 976.199 68.5703C978.163 64.1693 979.145 58.9896 979.145 53.0312V52.9297C979.145 46.9375 978.146 41.7409 976.149 37.3398C974.185 32.9388 971.375 29.5534 967.719 27.1836C964.063 24.7799 959.746 23.5781 954.77 23.5781C949.793 23.5781 945.46 24.7799 941.77 27.1836C938.113 29.5534 935.287 32.9388 933.289 37.3398C931.292 41.707 930.293 46.9036 930.293 52.9297V53.0312C930.293 59.0234 931.292 64.2201 933.289 68.6211C935.287 73.0221 938.113 76.4245 941.77 78.8281C945.426 81.2318 949.759 82.4336 954.77 82.4336Z" fill="url(#paint0_radial_299_6446)"/>
<path d="M43.1953 209.914C37.5755 209.914 32.6667 209.068 28.4688 207.375C24.2708 205.682 20.9531 203.262 18.5156 200.113C16.112 196.965 14.7578 193.207 14.4531 188.84L14.4023 188.078H26.8945L26.9961 188.688C27.3685 190.786 28.2826 192.598 29.7383 194.121C31.194 195.645 33.1068 196.829 35.4766 197.676C37.8802 198.488 40.6055 198.895 43.6523 198.895C46.7331 198.895 49.3906 198.471 51.625 197.625C53.8932 196.779 55.6367 195.577 56.8555 194.02C58.0742 192.428 58.6836 190.583 58.6836 188.484V188.434C58.6836 185.691 57.651 183.525 55.5859 181.934C53.5547 180.342 50.1693 179.039 45.4297 178.023L37.5586 176.398C30.3815 174.909 24.9987 172.471 21.4102 169.086C17.8216 165.667 16.0273 161.232 16.0273 155.781V155.73C16.0612 151.397 17.2292 147.622 19.5312 144.406C21.8672 141.156 25.0833 138.634 29.1797 136.84C33.276 135.012 37.9479 134.098 43.1953 134.098C48.5104 134.098 53.1654 134.978 57.1602 136.738C61.1549 138.499 64.2865 140.953 66.5547 144.102C68.8568 147.25 70.1263 150.906 70.3633 155.07L70.4141 155.934H57.9219L57.8203 155.273C57.5156 153.141 56.7201 151.329 55.4336 149.84C54.1471 148.316 52.4544 147.148 50.3555 146.336C48.2565 145.523 45.8359 145.117 43.0938 145.117C40.25 145.117 37.7786 145.54 35.6797 146.387C33.6146 147.199 32.0065 148.35 30.8555 149.84C29.7383 151.329 29.1797 153.056 29.1797 155.02V155.07C29.1797 157.643 30.2122 159.742 32.2773 161.367C34.3763 162.958 37.6263 164.211 42.0273 165.125L49.8984 166.75C55.0104 167.799 59.1745 169.221 62.3906 171.016C65.6068 172.81 67.9766 175.061 69.5 177.77C71.0573 180.478 71.8359 183.728 71.8359 187.52V187.57C71.8359 192.107 70.6849 196.051 68.3828 199.402C66.1146 202.754 62.8307 205.344 58.5312 207.172C54.2656 209 49.1536 209.914 43.1953 209.914ZM110.407 209.914C103.4 209.914 97.3058 208.374 92.1261 205.293C86.9803 202.212 83.0024 197.845 80.1925 192.191C77.4165 186.504 76.0284 179.767 76.0284 171.98V171.93C76.0284 164.143 77.4334 157.423 80.2433 151.77C83.0532 146.116 87.031 141.766 92.1769 138.719C97.3227 135.638 103.4 134.098 110.407 134.098C116.027 134.098 121.054 135.181 125.489 137.348C129.958 139.514 133.597 142.51 136.407 146.336C139.217 150.161 140.944 154.562 141.587 159.539L141.638 160.047H128.79L128.536 159.082C127.825 156.272 126.657 153.852 125.032 151.82C123.407 149.789 121.359 148.215 118.888 147.098C116.416 145.98 113.59 145.422 110.407 145.422C106.142 145.422 102.435 146.505 99.2863 148.672C96.1378 150.839 93.7003 153.902 91.9738 157.863C90.2472 161.79 89.3839 166.479 89.3839 171.93V171.98C89.3839 177.397 90.2472 182.103 91.9738 186.098C93.7003 190.059 96.1378 193.139 99.2863 195.34C102.469 197.507 106.176 198.59 110.407 198.59C113.522 198.59 116.298 198.048 118.735 196.965C121.207 195.848 123.289 194.24 124.982 192.141C126.674 190.042 127.91 187.486 128.689 184.473L128.841 183.965H141.689L141.587 184.523C140.978 189.5 139.268 193.901 136.458 197.727C133.648 201.552 130.009 204.548 125.54 206.715C121.071 208.848 116.027 209.914 110.407 209.914ZM141.819 208.645L168.022 135.367H179.041V148.418H175.233L155.53 208.645H141.819ZM155.072 189.703L158.576 179.598H192.143L195.647 189.703H155.072ZM195.19 208.645L175.487 148.418V135.367H182.748L208.901 208.645H195.19ZM213.652 208.645V135.367H226.753V197.625H259.964V208.645H213.652ZM266.29 208.645V135.367H313.719V146.387H279.391V166.141H311.84V176.703H279.391V197.625H313.719V208.645H266.29Z" fill="#101010"/>
<path d="M379.211 208.645V177.109L353.211 135.367H363.621L383.629 168.273H383.933L403.941 135.367H414.351L388.351 177.109V208.645H379.211ZM445.001 209.863C438.061 209.863 432.052 208.323 426.974 205.242C421.929 202.161 418.036 197.794 415.294 192.141C412.552 186.487 411.181 179.784 411.181 172.031V171.93C411.181 164.177 412.552 157.491 415.294 151.871C418.07 146.217 421.98 141.85 427.024 138.77C432.103 135.689 438.095 134.148 445.001 134.148C451.907 134.148 457.882 135.689 462.927 138.77C467.971 141.85 471.864 146.217 474.606 151.871C477.349 157.491 478.72 164.177 478.72 171.93V172.031C478.72 179.784 477.349 186.487 474.606 192.141C471.864 197.794 467.971 202.161 462.927 205.242C457.916 208.323 451.941 209.863 445.001 209.863ZM445.001 201.434C450.045 201.434 454.379 200.232 458.001 197.828C461.657 195.391 464.467 191.971 466.431 187.57C468.394 183.169 469.376 177.99 469.376 172.031V171.93C469.376 165.938 468.377 160.741 466.38 156.34C464.416 151.939 461.606 148.553 457.95 146.184C454.294 143.78 449.978 142.578 445.001 142.578C440.024 142.578 435.691 143.78 432.001 146.184C428.345 148.553 425.518 151.939 423.52 156.34C421.523 160.707 420.524 165.904 420.524 171.93V172.031C420.524 178.023 421.523 183.22 423.52 187.621C425.518 192.022 428.345 195.424 432.001 197.828C435.657 200.232 439.991 201.434 445.001 201.434ZM516.123 209.863C510.063 209.863 504.85 208.729 500.483 206.461C496.149 204.193 492.815 201.044 490.479 197.016C488.143 192.953 486.975 188.264 486.975 182.949V135.367H496.115V182.34C496.115 186.098 496.894 189.415 498.451 192.293C500.042 195.137 502.328 197.371 505.307 198.996C508.286 200.621 511.891 201.434 516.123 201.434C520.355 201.434 523.943 200.621 526.889 198.996C529.868 197.371 532.136 195.137 533.693 192.293C535.251 189.415 536.029 186.098 536.029 182.34V135.367H545.17V182.949C545.17 188.264 544.002 192.953 541.666 197.016C539.364 201.044 536.046 204.193 531.713 206.461C527.38 208.729 522.183 209.863 516.123 209.863ZM556.269 208.645V135.367H583.741C588.447 135.367 592.543 136.281 596.03 138.109C599.551 139.904 602.277 142.443 604.206 145.727C606.136 148.977 607.101 152.802 607.101 157.203V157.305C607.101 162.383 605.78 166.784 603.14 170.508C600.533 174.198 596.945 176.771 592.374 178.227L609.335 208.645H598.62L582.929 179.648C582.827 179.648 582.726 179.648 582.624 179.648C582.556 179.648 582.472 179.648 582.37 179.648H565.409V208.645H556.269ZM565.409 171.574H582.929C587.635 171.574 591.257 170.355 593.796 167.918C596.369 165.48 597.655 162.01 597.655 157.508V157.406C597.655 153.039 596.301 149.637 593.593 147.199C590.918 144.728 587.228 143.492 582.523 143.492H565.409V171.574ZM633.716 208.645V135.367H642.857V167.055H683.076V135.367H692.216V208.645H683.076V175.281H642.857V208.645H633.716ZM703.315 208.645V135.367H712.456V208.645H703.315ZM754.277 209.863C749.165 209.863 744.544 208.983 740.414 207.223C736.284 205.428 732.746 202.855 729.8 199.504C726.889 196.152 724.638 192.124 723.047 187.418C721.489 182.712 720.711 177.448 720.711 171.625V171.574C720.711 163.923 722.082 157.305 724.824 151.719C727.6 146.133 731.493 141.816 736.504 138.77C741.548 135.689 747.472 134.148 754.277 134.148C759.897 134.148 764.755 135.147 768.851 137.145C772.981 139.108 776.367 141.799 779.008 145.219C781.648 148.604 783.527 152.464 784.644 156.797L784.898 157.762H775.3L775.097 157.203C773.405 152.565 770.798 148.977 767.277 146.438C763.756 143.865 759.423 142.578 754.277 142.578C749.267 142.578 744.95 143.746 741.328 146.082C737.705 148.384 734.912 151.702 732.949 156.035C731.019 160.368 730.054 165.548 730.054 171.574V171.625C730.054 176.229 730.613 180.376 731.73 184.066C732.847 187.723 734.455 190.854 736.554 193.461C738.687 196.034 741.243 198.014 744.222 199.402C747.202 200.757 750.553 201.434 754.277 201.434C758.61 201.434 762.419 200.57 765.703 198.844C769.021 197.083 771.593 194.646 773.422 191.531C775.284 188.417 776.215 184.811 776.215 180.715V179.395H755.547V171.371H785.355V178.328C785.355 183.271 784.644 187.689 783.222 191.582C781.834 195.475 779.803 198.793 777.129 201.535C774.454 204.243 771.187 206.309 767.328 207.73C763.502 209.152 759.152 209.863 754.277 209.863ZM793.966 208.645V135.367H803.106V167.055H843.325V135.367H852.466V208.645H843.325V175.281H803.106V208.645H793.966ZM900.308 208.645V143.594H877.202V135.367H932.554V143.594H909.448V208.645H900.308ZM939.082 208.645V135.367H948.223V208.645H939.082ZM989.943 209.863C983.172 209.863 977.264 208.306 972.22 205.191C967.21 202.077 963.333 197.693 960.591 192.039C957.849 186.352 956.478 179.665 956.478 171.98V171.93C956.478 164.245 957.849 157.576 960.591 151.922C963.333 146.268 967.21 141.901 972.22 138.82C977.23 135.706 983.138 134.148 989.943 134.148C995.021 134.148 999.642 135.113 1003.81 137.043C1007.97 138.973 1011.44 141.664 1014.22 145.117C1017.03 148.57 1018.89 152.616 1019.8 157.254L1019.9 157.762H1010.66L1010.31 156.645C1009.36 153.665 1007.94 151.143 1006.04 149.078C1004.18 146.979 1001.89 145.371 999.185 144.254C996.477 143.137 993.396 142.578 989.943 142.578C985.068 142.578 980.819 143.797 977.197 146.234C973.608 148.638 970.815 152.04 968.818 156.441C966.854 160.809 965.872 165.971 965.872 171.93V171.98C965.872 177.905 966.854 183.085 968.818 187.52C970.815 191.921 973.625 195.34 977.247 197.777C980.87 200.215 985.102 201.434 989.943 201.434C993.362 201.434 996.409 200.875 999.083 199.758C1001.79 198.641 1004.11 196.999 1006.04 194.832C1007.97 192.632 1009.46 189.923 1010.51 186.707L1010.66 186.25H1019.9L1019.8 186.758C1018.89 191.43 1017.04 195.509 1014.27 198.996C1011.49 202.449 1008.02 205.124 1003.86 207.02C999.693 208.915 995.055 209.863 989.943 209.863ZM1035.98 183.863V171.32H1037.05L1068.12 135.367H1079.6L1050.45 168.426H1049.99L1035.98 183.863ZM1027.6 208.645V135.367H1036.74V208.645H1027.6ZM1070.61 208.645L1044.05 173.707L1050.5 167.207L1082.29 208.645H1070.61ZM1086.94 208.645V135.367H1132.34V143.594H1096.08V167.105H1130.46V175.23H1096.08V200.418H1132.34V208.645H1086.94ZM1159.84 208.645V143.594H1136.73V135.367H1192.09V143.594H1168.98V208.645H1159.84ZM1247.8 209.863C1240.86 209.863 1234.85 208.323 1229.77 205.242C1224.73 202.161 1220.83 197.794 1218.09 192.141C1215.35 186.487 1213.98 179.784 1213.98 172.031V171.93C1213.98 164.177 1215.35 157.491 1218.09 151.871C1220.87 146.217 1224.78 141.85 1229.82 138.77C1234.9 135.689 1240.89 134.148 1247.8 134.148C1254.71 134.148 1260.68 135.689 1265.73 138.77C1270.77 141.85 1274.66 146.217 1277.41 151.871C1280.15 157.491 1281.52 164.177 1281.52 171.93V172.031C1281.52 179.784 1280.15 186.487 1277.41 192.141C1274.66 197.794 1270.77 202.161 1265.73 205.242C1260.72 208.323 1254.74 209.863 1247.8 209.863ZM1247.8 201.434C1252.84 201.434 1257.18 200.232 1260.8 197.828C1264.46 195.391 1267.27 191.971 1269.23 187.57C1271.19 183.169 1272.17 177.99 1272.17 172.031V171.93C1272.17 165.938 1271.18 160.741 1269.18 156.34C1267.22 151.939 1264.41 148.553 1260.75 146.184C1257.09 143.78 1252.78 142.578 1247.8 142.578C1242.82 142.578 1238.49 143.78 1234.8 146.184C1231.14 148.553 1228.32 151.939 1226.32 156.34C1224.32 160.707 1223.32 165.904 1223.32 171.93V172.031C1223.32 178.023 1224.32 183.22 1226.32 187.621C1228.32 192.022 1231.14 195.424 1234.8 197.828C1238.46 200.232 1242.79 201.434 1247.8 201.434ZM1289.77 208.645V135.367H1334.26V143.594H1298.91V168.781H1331.36V176.906H1298.91V208.645H1289.77ZM1341.6 208.645V135.367H1386.08V143.594H1350.74V168.781H1383.19V176.906H1350.74V208.645H1341.6ZM1393.42 208.645V135.367H1438.82V143.594H1402.56V167.105H1436.94V175.23H1402.56V200.418H1438.82V208.645H1393.42ZM1447.79 208.645V135.367H1475.26C1479.97 135.367 1484.06 136.281 1487.55 138.109C1491.07 139.904 1493.8 142.443 1495.73 145.727C1497.66 148.977 1498.62 152.802 1498.62 157.203V157.305C1498.62 162.383 1497.3 166.784 1494.66 170.508C1492.05 174.198 1488.46 176.771 1483.89 178.227L1500.85 208.645H1490.14L1474.45 179.648C1474.35 179.648 1474.25 179.648 1474.14 179.648C1474.08 179.648 1473.99 179.648 1473.89 179.648H1456.93V208.645H1447.79ZM1456.93 171.574H1474.45C1479.15 171.574 1482.78 170.355 1485.32 167.918C1487.89 165.48 1489.18 162.01 1489.18 157.508V157.406C1489.18 153.039 1487.82 149.637 1485.11 147.199C1482.44 144.728 1478.75 143.492 1474.04 143.492H1456.93V171.574Z" fill="white"/>
<path d="M379.211 208.645V177.109L353.211 135.367H363.621L383.629 168.273H383.933L403.941 135.367H414.351L388.351 177.109V208.645H379.211ZM445.001 209.863C438.061 209.863 432.052 208.323 426.974 205.242C421.929 202.161 418.036 197.794 415.294 192.141C412.552 186.487 411.181 179.784 411.181 172.031V171.93C411.181 164.177 412.552 157.491 415.294 151.871C418.07 146.217 421.98 141.85 427.024 138.77C432.103 135.689 438.095 134.148 445.001 134.148C451.907 134.148 457.882 135.689 462.927 138.77C467.971 141.85 471.864 146.217 474.606 151.871C477.349 157.491 478.72 164.177 478.72 171.93V172.031C478.72 179.784 477.349 186.487 474.606 192.141C471.864 197.794 467.971 202.161 462.927 205.242C457.916 208.323 451.941 209.863 445.001 209.863ZM445.001 201.434C450.045 201.434 454.379 200.232 458.001 197.828C461.657 195.391 464.467 191.971 466.431 187.57C468.394 183.169 469.376 177.99 469.376 172.031V171.93C469.376 165.938 468.377 160.741 466.38 156.34C464.416 151.939 461.606 148.553 457.95 146.184C454.294 143.78 449.978 142.578 445.001 142.578C440.024 142.578 435.691 143.78 432.001 146.184C428.345 148.553 425.518 151.939 423.52 156.34C421.523 160.707 420.524 165.904 420.524 171.93V172.031C420.524 178.023 421.523 183.22 423.52 187.621C425.518 192.022 428.345 195.424 432.001 197.828C435.657 200.232 439.991 201.434 445.001 201.434ZM516.123 209.863C510.063 209.863 504.85 208.729 500.483 206.461C496.149 204.193 492.815 201.044 490.479 197.016C488.143 192.953 486.975 188.264 486.975 182.949V135.367H496.115V182.34C496.115 186.098 496.894 189.415 498.451 192.293C500.042 195.137 502.328 197.371 505.307 198.996C508.286 200.621 511.891 201.434 516.123 201.434C520.355 201.434 523.943 200.621 526.889 198.996C529.868 197.371 532.136 195.137 533.693 192.293C535.251 189.415 536.029 186.098 536.029 182.34V135.367H545.17V182.949C545.17 188.264 544.002 192.953 541.666 197.016C539.364 201.044 536.046 204.193 531.713 206.461C527.38 208.729 522.183 209.863 516.123 209.863ZM556.269 208.645V135.367H583.741C588.447 135.367 592.543 136.281 596.03 138.109C599.551 139.904 602.277 142.443 604.206 145.727C606.136 148.977 607.101 152.802 607.101 157.203V157.305C607.101 162.383 605.78 166.784 603.14 170.508C600.533 174.198 596.945 176.771 592.374 178.227L609.335 208.645H598.62L582.929 179.648C582.827 179.648 582.726 179.648 582.624 179.648C582.556 179.648 582.472 179.648 582.37 179.648H565.409V208.645H556.269ZM565.409 171.574H582.929C587.635 171.574 591.257 170.355 593.796 167.918C596.369 165.48 597.655 162.01 597.655 157.508V157.406C597.655 153.039 596.301 149.637 593.593 147.199C590.918 144.728 587.228 143.492 582.523 143.492H565.409V171.574ZM633.716 208.645V135.367H642.857V167.055H683.076V135.367H692.216V208.645H683.076V175.281H642.857V208.645H633.716ZM703.315 208.645V135.367H712.456V208.645H703.315ZM754.277 209.863C749.165 209.863 744.544 208.983 740.414 207.223C736.284 205.428 732.746 202.855 729.8 199.504C726.889 196.152 724.638 192.124 723.047 187.418C721.489 182.712 720.711 177.448 720.711 171.625V171.574C720.711 163.923 722.082 157.305 724.824 151.719C727.6 146.133 731.493 141.816 736.504 138.77C741.548 135.689 747.472 134.148 754.277 134.148C759.897 134.148 764.755 135.147 768.851 137.145C772.981 139.108 776.367 141.799 779.008 145.219C781.648 148.604 783.527 152.464 784.644 156.797L784.898 157.762H775.3L775.097 157.203C773.405 152.565 770.798 148.977 767.277 146.438C763.756 143.865 759.423 142.578 754.277 142.578C749.267 142.578 744.95 143.746 741.328 146.082C737.705 148.384 734.912 151.702 732.949 156.035C731.019 160.368 730.054 165.548 730.054 171.574V171.625C730.054 176.229 730.613 180.376 731.73 184.066C732.847 187.723 734.455 190.854 736.554 193.461C738.687 196.034 741.243 198.014 744.222 199.402C747.202 200.757 750.553 201.434 754.277 201.434C758.61 201.434 762.419 200.57 765.703 198.844C769.021 197.083 771.593 194.646 773.422 191.531C775.284 188.417 776.215 184.811 776.215 180.715V179.395H755.547V171.371H785.355V178.328C785.355 183.271 784.644 187.689 783.222 191.582C781.834 195.475 779.803 198.793 777.129 201.535C774.454 204.243 771.187 206.309 767.328 207.73C763.502 209.152 759.152 209.863 754.277 209.863ZM793.966 208.645V135.367H803.106V167.055H843.325V135.367H852.466V208.645H843.325V175.281H803.106V208.645H793.966ZM900.308 208.645V143.594H877.202V135.367H932.554V143.594H909.448V208.645H900.308ZM939.082 208.645V135.367H948.223V208.645H939.082ZM989.943 209.863C983.172 209.863 977.264 208.306 972.22 205.191C967.21 202.077 963.333 197.693 960.591 192.039C957.849 186.352 956.478 179.665 956.478 171.98V171.93C956.478 164.245 957.849 157.576 960.591 151.922C963.333 146.268 967.21 141.901 972.22 138.82C977.23 135.706 983.138 134.148 989.943 134.148C995.021 134.148 999.642 135.113 1003.81 137.043C1007.97 138.973 1011.44 141.664 1014.22 145.117C1017.03 148.57 1018.89 152.616 1019.8 157.254L1019.9 157.762H1010.66L1010.31 156.645C1009.36 153.665 1007.94 151.143 1006.04 149.078C1004.18 146.979 1001.89 145.371 999.185 144.254C996.477 143.137 993.396 142.578 989.943 142.578C985.068 142.578 980.819 143.797 977.197 146.234C973.608 148.638 970.815 152.04 968.818 156.441C966.854 160.809 965.872 165.971 965.872 171.93V171.98C965.872 177.905 966.854 183.085 968.818 187.52C970.815 191.921 973.625 195.34 977.247 197.777C980.87 200.215 985.102 201.434 989.943 201.434C993.362 201.434 996.409 200.875 999.083 199.758C1001.79 198.641 1004.11 196.999 1006.04 194.832C1007.97 192.632 1009.46 189.923 1010.51 186.707L1010.66 186.25H1019.9L1019.8 186.758C1018.89 191.43 1017.04 195.509 1014.27 198.996C1011.49 202.449 1008.02 205.124 1003.86 207.02C999.693 208.915 995.055 209.863 989.943 209.863ZM1035.98 183.863V171.32H1037.05L1068.12 135.367H1079.6L1050.45 168.426H1049.99L1035.98 183.863ZM1027.6 208.645V135.367H1036.74V208.645H1027.6ZM1070.61 208.645L1044.05 173.707L1050.5 167.207L1082.29 208.645H1070.61ZM1086.94 208.645V135.367H1132.34V143.594H1096.08V167.105H1130.46V175.23H1096.08V200.418H1132.34V208.645H1086.94ZM1159.84 208.645V143.594H1136.73V135.367H1192.09V143.594H1168.98V208.645H1159.84ZM1247.8 209.863C1240.86 209.863 1234.85 208.323 1229.77 205.242C1224.73 202.161 1220.83 197.794 1218.09 192.141C1215.35 186.487 1213.98 179.784 1213.98 172.031V171.93C1213.98 164.177 1215.35 157.491 1218.09 151.871C1220.87 146.217 1224.78 141.85 1229.82 138.77C1234.9 135.689 1240.89 134.148 1247.8 134.148C1254.71 134.148 1260.68 135.689 1265.73 138.77C1270.77 141.85 1274.66 146.217 1277.41 151.871C1280.15 157.491 1281.52 164.177 1281.52 171.93V172.031C1281.52 179.784 1280.15 186.487 1277.41 192.141C1274.66 197.794 1270.77 202.161 1265.73 205.242C1260.72 208.323 1254.74 209.863 1247.8 209.863ZM1247.8 201.434C1252.84 201.434 1257.18 200.232 1260.8 197.828C1264.46 195.391 1267.27 191.971 1269.23 187.57C1271.19 183.169 1272.17 177.99 1272.17 172.031V171.93C1272.17 165.938 1271.18 160.741 1269.18 156.34C1267.22 151.939 1264.41 148.553 1260.75 146.184C1257.09 143.78 1252.78 142.578 1247.8 142.578C1242.82 142.578 1238.49 143.78 1234.8 146.184C1231.14 148.553 1228.32 151.939 1226.32 156.34C1224.32 160.707 1223.32 165.904 1223.32 171.93V172.031C1223.32 178.023 1224.32 183.22 1226.32 187.621C1228.32 192.022 1231.14 195.424 1234.8 197.828C1238.46 200.232 1242.79 201.434 1247.8 201.434ZM1289.77 208.645V135.367H1334.26V143.594H1298.91V168.781H1331.36V176.906H1298.91V208.645H1289.77ZM1341.6 208.645V135.367H1386.08V143.594H1350.74V168.781H1383.19V176.906H1350.74V208.645H1341.6ZM1393.42 208.645V135.367H1438.82V143.594H1402.56V167.105H1436.94V175.23H1402.56V200.418H1438.82V208.645H1393.42ZM1447.79 208.645V135.367H1475.26C1479.97 135.367 1484.06 136.281 1487.55 138.109C1491.07 139.904 1493.8 142.443 1495.73 145.727C1497.66 148.977 1498.62 152.802 1498.62 157.203V157.305C1498.62 162.383 1497.3 166.784 1494.66 170.508C1492.05 174.198 1488.46 176.771 1483.89 178.227L1500.85 208.645H1490.14L1474.45 179.648C1474.35 179.648 1474.25 179.648 1474.14 179.648C1474.08 179.648 1473.99 179.648 1473.89 179.648H1456.93V208.645H1447.79ZM1456.93 171.574H1474.45C1479.15 171.574 1482.78 170.355 1485.32 167.918C1487.89 165.48 1489.18 162.01 1489.18 157.508V157.406C1489.18 153.039 1487.82 149.637 1485.11 147.199C1482.44 144.728 1478.75 143.492 1474.04 143.492H1456.93V171.574Z" fill="url(#paint1_radial_299_6446)"/>
<defs>
<radialGradient id="paint0_radial_299_6446" cx="0" cy="0" r="1" gradientUnits="userSpaceOnUse" gradientTransform="translate(719 52.6445) rotate(3.8789) scale(1247.43 491.861)">
<stop stop-color="white"/>
<stop offset="1" stop-color="#363541"/>
</radialGradient>
<radialGradient id="paint1_radial_299_6446" cx="0" cy="0" r="1" gradientUnits="userSpaceOnUse" gradientTransform="translate(757.5 171.645) rotate(3.69496) scale(1309.43 491.965)">
<stop stop-color="white"/>
<stop offset="1" stop-color="#363541"/>
</radialGradient>
</defs>
</svg>
