<svg width="276" height="134" viewBox="0 0 276 134" fill="none" xmlns="http://www.w3.org/2000/svg">
<rect x="8" y="65" width="111" height="36" rx="8" fill="white"/>
<path d="M7.89062 27V6.98438H0.78125V4.45312H17.8125V6.98438H10.7031V27H7.89062ZM19.8213 27V4.45312H22.6338V14.2031H35.0088V4.45312H37.8213V27H35.0088V16.7344H22.6338V27H19.8213ZM41.2363 27V4.45312H55.205V6.98438H44.0488V14.2188H54.6269V16.7188H44.0488V24.4688H55.205V27H41.2363ZM57.9637 27V4.45312H66.4169C67.8648 4.45312 69.1252 4.73438 70.1981 5.29688C71.2815 5.84896 72.12 6.63021 72.7137 7.64062C73.3075 8.64062 73.6044 9.81771 73.6044 11.1719V11.2031C73.6044 12.7656 73.1981 14.1198 72.3856 15.2656C71.5835 16.401 70.4794 17.1927 69.0731 17.6406L74.2919 27H70.995L66.1669 18.0781C66.1356 18.0781 66.1044 18.0781 66.0731 18.0781C66.0523 18.0781 66.0262 18.0781 65.995 18.0781H60.7762V27H57.9637ZM60.7762 15.5938H66.1669C67.6148 15.5938 68.7294 15.2188 69.5106 14.4688C70.3023 13.7188 70.6981 12.651 70.6981 11.2656V11.2344C70.6981 9.89062 70.2815 8.84375 69.4481 8.09375C68.6252 7.33333 67.4898 6.95312 66.0419 6.95312H60.7762V15.5938ZM76.1913 27V4.45312H90.16V6.98438H79.0038V14.2188H89.5819V16.7188H79.0038V24.4688H90.16V27H76.1913ZM96.7244 27L105.115 4.45312H107.193V7.82812H106.474L99.6775 27H96.7244ZM100.568 20.5469L101.506 18.1562H111.506L112.443 20.5469H100.568ZM113.318 27L106.537 7.82812V4.45312H107.896L116.271 27H113.318ZM117.905 27V4.45312H126.358C127.806 4.45312 129.066 4.73438 130.139 5.29688C131.223 5.84896 132.061 6.63021 132.655 7.64062C133.249 8.64062 133.546 9.81771 133.546 11.1719V11.2031C133.546 12.7656 133.139 14.1198 132.327 15.2656C131.525 16.401 130.421 17.1927 129.014 17.6406L134.233 27H130.936L126.108 18.0781C126.077 18.0781 126.046 18.0781 126.014 18.0781C125.994 18.0781 125.967 18.0781 125.936 18.0781H120.717V27H117.905ZM120.717 15.5938H126.108C127.556 15.5938 128.671 15.2188 129.452 14.4688C130.244 13.7188 130.639 12.651 130.639 11.2656V11.2344C130.639 9.89062 130.223 8.84375 129.389 8.09375C128.566 7.33333 127.431 6.95312 125.983 6.95312H120.717V15.5938ZM136.133 27V4.45312H150.101V6.98438H138.945V14.2188H149.523V16.7188H138.945V24.4688H150.101V27H136.133ZM1.82812 59V57.0625L9.76562 48.7812C10.7865 47.7188 11.5625 46.8438 12.0938 46.1562C12.6354 45.4583 13.0052 44.8333 13.2031 44.2812C13.4115 43.7292 13.5156 43.1406 13.5156 42.5156V42.4844C13.5156 41.7135 13.3333 41.0312 12.9688 40.4375C12.6146 39.8438 12.1198 39.3802 11.4844 39.0469C10.8594 38.7031 10.1354 38.5312 9.3125 38.5312C8.375 38.5312 7.53646 38.7292 6.79688 39.125C6.05729 39.5104 5.47396 40.0312 5.04688 40.6875C4.61979 41.3438 4.40625 42.0781 4.40625 42.8906V42.9688H1.6875V42.875C1.6875 41.5729 2.02604 40.4115 2.70312 39.3906C3.38021 38.3594 4.29167 37.5521 5.4375 36.9688C6.59375 36.375 7.86979 36.0781 9.26562 36.0781C10.6302 36.0781 11.8438 36.3542 12.9062 36.9062C13.9688 37.4583 14.8021 38.2083 15.4062 39.1562C16.0208 40.1042 16.3281 41.1667 16.3281 42.3438V42.375C16.3281 43.1979 16.1719 43.9948 15.8594 44.7656C15.5573 45.5365 15.026 46.4062 14.2656 47.375C13.5052 48.3333 12.4323 49.5208 11.0469 50.9375L4.85938 57.2812L5.6875 55.5469V57.2812L4.85938 56.5H16.7031V59H1.82812ZM29.6112 59L23.4706 36.4531H26.4081L30.955 54.9688H31.0175L36.1269 36.4531H38.9706L44.08 54.9688H44.1425L48.6894 36.4531H51.6269L45.4862 59H42.83L37.58 40.9375H37.5175L32.2675 59H29.6112ZM49.7294 59L58.12 36.4531H60.1981V39.8281H59.4794L52.6825 59H49.7294ZM53.5731 52.5469L54.5106 50.1562H64.5106L65.4481 52.5469H53.5731ZM66.3231 59L59.5419 39.8281V36.4531H60.9012L69.2762 59H66.3231ZM74.3006 59V49.2969L66.3006 36.4531H69.5038L75.66 46.5781H75.7538L81.91 36.4531H85.1131L77.1131 49.2969V59H74.3006ZM93.0125 59.375C91.3875 59.375 89.9552 59.125 88.7156 58.625C87.4865 58.1146 86.5073 57.3906 85.7781 56.4531C85.0594 55.5156 84.6531 54.4062 84.5594 53.125L84.5437 52.9062H87.3562L87.3875 53.125C87.5021 53.875 87.8094 54.526 88.3094 55.0781C88.8094 55.6198 89.4708 56.0417 90.2937 56.3438C91.1271 56.6354 92.0854 56.7812 93.1687 56.7812C94.2521 56.7812 95.1896 56.6302 95.9812 56.3281C96.7729 56.0156 97.3823 55.5729 97.8094 55C98.2469 54.4271 98.4656 53.7552 98.4656 52.9844V52.9688C98.4656 51.9792 98.1219 51.1875 97.4344 50.5938C96.7469 50 95.6271 49.5312 94.075 49.1875L91.575 48.6406C89.3771 48.151 87.7469 47.401 86.6844 46.3906C85.6323 45.3698 85.1062 44.0365 85.1062 42.3906V42.375C85.1167 41.1354 85.4604 40.0469 86.1375 39.1094C86.8146 38.1615 87.7469 37.4219 88.9344 36.8906C90.1323 36.349 91.5021 36.0781 93.0437 36.0781C94.5125 36.0781 95.825 36.3438 96.9812 36.875C98.1375 37.3958 99.0594 38.125 99.7469 39.0625C100.445 40 100.835 41.0833 100.919 42.3125L100.934 42.5469H98.1219L98.0906 42.3281C97.976 41.5573 97.6948 40.901 97.2469 40.3594C96.799 39.8177 96.2104 39.401 95.4812 39.1094C94.7625 38.8177 93.924 38.6719 92.9656 38.6719C91.9656 38.6719 91.0906 38.8229 90.3406 39.125C89.5906 39.4271 89.0073 39.849 88.5906 40.3906C88.1844 40.9323 87.9812 41.5677 87.9812 42.2969V42.3125C87.9812 43.2292 88.3302 43.9844 89.0281 44.5781C89.726 45.1719 90.8094 45.6302 92.2781 45.9531L94.7781 46.5C96.3198 46.8333 97.5698 47.276 98.5281 47.8281C99.4969 48.3802 100.205 49.0677 100.653 49.8906C101.111 50.7031 101.341 51.6823 101.341 52.8281V52.8438C101.341 54.1771 101.002 55.3333 100.325 56.3125C99.6583 57.2917 98.7 58.0469 97.45 58.5781C96.2104 59.1094 94.7312 59.375 93.0125 59.375ZM114.983 59V38.9844H107.874V36.4531H124.905V38.9844H117.796V59H114.983ZM135.039 59.375C132.903 59.375 131.054 58.901 129.492 57.9531C127.94 57.0052 126.742 55.6615 125.898 53.9219C125.054 52.1823 124.632 50.1198 124.632 47.7344V47.7031C124.632 45.3177 125.054 43.2604 125.898 41.5312C126.752 39.7917 127.955 38.4479 129.507 37.5C131.07 36.5521 132.914 36.0781 135.039 36.0781C137.164 36.0781 139.002 36.5521 140.554 37.5C142.106 38.4479 143.304 39.7917 144.148 41.5312C144.992 43.2604 145.414 45.3177 145.414 47.7031V47.7344C145.414 50.1198 144.992 52.1823 144.148 53.9219C143.304 55.6615 142.106 57.0052 140.554 57.9531C139.013 58.901 137.174 59.375 135.039 59.375ZM135.039 56.7812C136.591 56.7812 137.924 56.4115 139.039 55.6719C140.164 54.9219 141.028 53.8698 141.632 52.5156C142.237 51.1615 142.539 49.5677 142.539 47.7344V47.7031C142.539 45.8594 142.231 44.2604 141.617 42.9062C141.013 41.5521 140.148 40.5104 139.023 39.7812C137.898 39.0417 136.57 38.6719 135.039 38.6719C133.507 38.6719 132.174 39.0417 131.039 39.7812C129.914 40.5104 129.044 41.5521 128.429 42.9062C127.815 44.25 127.507 45.849 127.507 47.7031V47.7344C127.507 49.5781 127.815 51.1771 128.429 52.5312C129.044 53.8854 129.914 54.9323 131.039 55.6719C132.164 56.4115 133.497 56.7812 135.039 56.7812Z" fill="white"/>
<path d="M7.89062 27V6.98438H0.78125V4.45312H17.8125V6.98438H10.7031V27H7.89062ZM19.8213 27V4.45312H22.6338V14.2031H35.0088V4.45312H37.8213V27H35.0088V16.7344H22.6338V27H19.8213ZM41.2363 27V4.45312H55.205V6.98438H44.0488V14.2188H54.6269V16.7188H44.0488V24.4688H55.205V27H41.2363ZM57.9637 27V4.45312H66.4169C67.8648 4.45312 69.1252 4.73438 70.1981 5.29688C71.2815 5.84896 72.12 6.63021 72.7137 7.64062C73.3075 8.64062 73.6044 9.81771 73.6044 11.1719V11.2031C73.6044 12.7656 73.1981 14.1198 72.3856 15.2656C71.5835 16.401 70.4794 17.1927 69.0731 17.6406L74.2919 27H70.995L66.1669 18.0781C66.1356 18.0781 66.1044 18.0781 66.0731 18.0781C66.0523 18.0781 66.0262 18.0781 65.995 18.0781H60.7762V27H57.9637ZM60.7762 15.5938H66.1669C67.6148 15.5938 68.7294 15.2188 69.5106 14.4688C70.3023 13.7188 70.6981 12.651 70.6981 11.2656V11.2344C70.6981 9.89062 70.2815 8.84375 69.4481 8.09375C68.6252 7.33333 67.4898 6.95312 66.0419 6.95312H60.7762V15.5938ZM76.1913 27V4.45312H90.16V6.98438H79.0038V14.2188H89.5819V16.7188H79.0038V24.4688H90.16V27H76.1913ZM96.7244 27L105.115 4.45312H107.193V7.82812H106.474L99.6775 27H96.7244ZM100.568 20.5469L101.506 18.1562H111.506L112.443 20.5469H100.568ZM113.318 27L106.537 7.82812V4.45312H107.896L116.271 27H113.318ZM117.905 27V4.45312H126.358C127.806 4.45312 129.066 4.73438 130.139 5.29688C131.223 5.84896 132.061 6.63021 132.655 7.64062C133.249 8.64062 133.546 9.81771 133.546 11.1719V11.2031C133.546 12.7656 133.139 14.1198 132.327 15.2656C131.525 16.401 130.421 17.1927 129.014 17.6406L134.233 27H130.936L126.108 18.0781C126.077 18.0781 126.046 18.0781 126.014 18.0781C125.994 18.0781 125.967 18.0781 125.936 18.0781H120.717V27H117.905ZM120.717 15.5938H126.108C127.556 15.5938 128.671 15.2188 129.452 14.4688C130.244 13.7188 130.639 12.651 130.639 11.2656V11.2344C130.639 9.89062 130.223 8.84375 129.389 8.09375C128.566 7.33333 127.431 6.95312 125.983 6.95312H120.717V15.5938ZM136.133 27V4.45312H150.101V6.98438H138.945V14.2188H149.523V16.7188H138.945V24.4688H150.101V27H136.133ZM1.82812 59V57.0625L9.76562 48.7812C10.7865 47.7188 11.5625 46.8438 12.0938 46.1562C12.6354 45.4583 13.0052 44.8333 13.2031 44.2812C13.4115 43.7292 13.5156 43.1406 13.5156 42.5156V42.4844C13.5156 41.7135 13.3333 41.0312 12.9688 40.4375C12.6146 39.8438 12.1198 39.3802 11.4844 39.0469C10.8594 38.7031 10.1354 38.5312 9.3125 38.5312C8.375 38.5312 7.53646 38.7292 6.79688 39.125C6.05729 39.5104 5.47396 40.0312 5.04688 40.6875C4.61979 41.3438 4.40625 42.0781 4.40625 42.8906V42.9688H1.6875V42.875C1.6875 41.5729 2.02604 40.4115 2.70312 39.3906C3.38021 38.3594 4.29167 37.5521 5.4375 36.9688C6.59375 36.375 7.86979 36.0781 9.26562 36.0781C10.6302 36.0781 11.8438 36.3542 12.9062 36.9062C13.9688 37.4583 14.8021 38.2083 15.4062 39.1562C16.0208 40.1042 16.3281 41.1667 16.3281 42.3438V42.375C16.3281 43.1979 16.1719 43.9948 15.8594 44.7656C15.5573 45.5365 15.026 46.4062 14.2656 47.375C13.5052 48.3333 12.4323 49.5208 11.0469 50.9375L4.85938 57.2812L5.6875 55.5469V57.2812L4.85938 56.5H16.7031V59H1.82812ZM29.6112 59L23.4706 36.4531H26.4081L30.955 54.9688H31.0175L36.1269 36.4531H38.9706L44.08 54.9688H44.1425L48.6894 36.4531H51.6269L45.4862 59H42.83L37.58 40.9375H37.5175L32.2675 59H29.6112ZM49.7294 59L58.12 36.4531H60.1981V39.8281H59.4794L52.6825 59H49.7294ZM53.5731 52.5469L54.5106 50.1562H64.5106L65.4481 52.5469H53.5731ZM66.3231 59L59.5419 39.8281V36.4531H60.9012L69.2762 59H66.3231ZM74.3006 59V49.2969L66.3006 36.4531H69.5038L75.66 46.5781H75.7538L81.91 36.4531H85.1131L77.1131 49.2969V59H74.3006ZM93.0125 59.375C91.3875 59.375 89.9552 59.125 88.7156 58.625C87.4865 58.1146 86.5073 57.3906 85.7781 56.4531C85.0594 55.5156 84.6531 54.4062 84.5594 53.125L84.5437 52.9062H87.3562L87.3875 53.125C87.5021 53.875 87.8094 54.526 88.3094 55.0781C88.8094 55.6198 89.4708 56.0417 90.2937 56.3438C91.1271 56.6354 92.0854 56.7812 93.1687 56.7812C94.2521 56.7812 95.1896 56.6302 95.9812 56.3281C96.7729 56.0156 97.3823 55.5729 97.8094 55C98.2469 54.4271 98.4656 53.7552 98.4656 52.9844V52.9688C98.4656 51.9792 98.1219 51.1875 97.4344 50.5938C96.7469 50 95.6271 49.5312 94.075 49.1875L91.575 48.6406C89.3771 48.151 87.7469 47.401 86.6844 46.3906C85.6323 45.3698 85.1062 44.0365 85.1062 42.3906V42.375C85.1167 41.1354 85.4604 40.0469 86.1375 39.1094C86.8146 38.1615 87.7469 37.4219 88.9344 36.8906C90.1323 36.349 91.5021 36.0781 93.0437 36.0781C94.5125 36.0781 95.825 36.3438 96.9812 36.875C98.1375 37.3958 99.0594 38.125 99.7469 39.0625C100.445 40 100.835 41.0833 100.919 42.3125L100.934 42.5469H98.1219L98.0906 42.3281C97.976 41.5573 97.6948 40.901 97.2469 40.3594C96.799 39.8177 96.2104 39.401 95.4812 39.1094C94.7625 38.8177 93.924 38.6719 92.9656 38.6719C91.9656 38.6719 91.0906 38.8229 90.3406 39.125C89.5906 39.4271 89.0073 39.849 88.5906 40.3906C88.1844 40.9323 87.9812 41.5677 87.9812 42.2969V42.3125C87.9812 43.2292 88.3302 43.9844 89.0281 44.5781C89.726 45.1719 90.8094 45.6302 92.2781 45.9531L94.7781 46.5C96.3198 46.8333 97.5698 47.276 98.5281 47.8281C99.4969 48.3802 100.205 49.0677 100.653 49.8906C101.111 50.7031 101.341 51.6823 101.341 52.8281V52.8438C101.341 54.1771 101.002 55.3333 100.325 56.3125C99.6583 57.2917 98.7 58.0469 97.45 58.5781C96.2104 59.1094 94.7312 59.375 93.0125 59.375ZM114.983 59V38.9844H107.874V36.4531H124.905V38.9844H117.796V59H114.983ZM135.039 59.375C132.903 59.375 131.054 58.901 129.492 57.9531C127.94 57.0052 126.742 55.6615 125.898 53.9219C125.054 52.1823 124.632 50.1198 124.632 47.7344V47.7031C124.632 45.3177 125.054 43.2604 125.898 41.5312C126.752 39.7917 127.955 38.4479 129.507 37.5C131.07 36.5521 132.914 36.0781 135.039 36.0781C137.164 36.0781 139.002 36.5521 140.554 37.5C142.106 38.4479 143.304 39.7917 144.148 41.5312C144.992 43.2604 145.414 45.3177 145.414 47.7031V47.7344C145.414 50.1198 144.992 52.1823 144.148 53.9219C143.304 55.6615 142.106 57.0052 140.554 57.9531C139.013 58.901 137.174 59.375 135.039 59.375ZM135.039 56.7812C136.591 56.7812 137.924 56.4115 139.039 55.6719C140.164 54.9219 141.028 53.8698 141.632 52.5156C142.237 51.1615 142.539 49.5677 142.539 47.7344V47.7031C142.539 45.8594 142.231 44.2604 141.617 42.9062C141.013 41.5521 140.148 40.5104 139.023 39.7812C137.898 39.0417 136.57 38.6719 135.039 38.6719C133.507 38.6719 132.174 39.0417 131.039 39.7812C129.914 40.5104 129.044 41.5521 128.429 42.9062C127.815 44.25 127.507 45.849 127.507 47.7031V47.7344C127.507 49.5781 127.815 51.1771 128.429 52.5312C129.044 53.8854 129.914 54.9323 131.039 55.6719C132.164 56.4115 133.497 56.7812 135.039 56.7812Z" fill="url(#paint0_radial_2_8)"/>
<path d="M25.2063 94.3906C23.4771 94.3906 21.9667 94.1302 20.675 93.6094C19.3833 93.0885 18.3625 92.3438 17.6125 91.375C16.8729 90.4062 16.4563 89.25 16.3625 87.9062L16.3469 87.6719H20.1906L20.2219 87.8594C20.3365 88.5052 20.6177 89.0625 21.0656 89.5312C21.5135 90 22.1021 90.3646 22.8313 90.625C23.5708 90.875 24.4094 91 25.3469 91C26.2948 91 27.1125 90.8698 27.8 90.6094C28.4979 90.349 29.0344 89.9792 29.4094 89.5C29.7844 89.0104 29.9719 88.4427 29.9719 87.7969V87.7812C29.9719 86.9375 29.6542 86.2708 29.0188 85.7812C28.3938 85.2917 27.3521 84.8906 25.8938 84.5781L23.4719 84.0781C21.2635 83.6198 19.6073 82.8698 18.5031 81.8281C17.399 80.776 16.8469 79.4115 16.8469 77.7344V77.7188C16.8573 76.3854 17.2167 75.224 17.925 74.2344C18.6438 73.2344 19.6333 72.4583 20.8938 71.9062C22.1542 71.3438 23.5917 71.0625 25.2063 71.0625C26.8417 71.0625 28.274 71.3333 29.5031 71.875C30.7323 72.4167 31.6958 73.1719 32.3938 74.1406C33.1021 75.1094 33.4927 76.2344 33.5656 77.5156L33.5813 77.7812H29.7375L29.7063 77.5781C29.6125 76.9219 29.3677 76.3646 28.9719 75.9062C28.576 75.4375 28.0552 75.0781 27.4094 74.8281C26.7635 74.5781 26.0188 74.4531 25.175 74.4531C24.3 74.4531 23.5396 74.5833 22.8938 74.8438C22.2583 75.0938 21.7635 75.4479 21.4094 75.9062C21.0656 76.3646 20.8938 76.8958 20.8938 77.5V77.5156C20.8938 78.3073 21.2115 78.9531 21.8469 79.4531C22.4927 79.9427 23.4927 80.3281 24.8469 80.6094L27.2688 81.1094C28.8417 81.4323 30.1229 81.8698 31.1125 82.4219C32.1021 82.974 32.8313 83.6667 33.3 84.5C33.7792 85.3333 34.0188 86.3333 34.0188 87.5V87.5156C34.0188 88.9115 33.6646 90.125 32.9563 91.1562C32.2583 92.1875 31.2479 92.9844 29.925 93.5469C28.6125 94.1094 27.0396 94.3906 25.2063 94.3906ZM45.8869 94.3906C43.7306 94.3906 41.8556 93.9167 40.2619 92.9688C38.6785 92.0208 37.4546 90.6771 36.59 88.9375C35.7358 87.1875 35.3088 85.1146 35.3088 82.7188V82.7031C35.3088 80.3073 35.741 78.2396 36.6056 76.5C37.4702 74.7604 38.6942 73.4219 40.2775 72.4844C41.8608 71.5365 43.7306 71.0625 45.8869 71.0625C47.616 71.0625 49.1629 71.3958 50.5275 72.0625C51.9025 72.7292 53.0223 73.651 53.8869 74.8281C54.7515 76.0052 55.2827 77.3594 55.4806 78.8906L55.4963 79.0469H51.5431L51.465 78.75C51.2463 77.8854 50.8869 77.1406 50.3869 76.5156C49.8869 75.8906 49.2567 75.4062 48.4963 75.0625C47.7358 74.7188 46.866 74.5469 45.8869 74.5469C44.5744 74.5469 43.4338 74.8802 42.465 75.5469C41.4963 76.2135 40.7463 77.1562 40.215 78.375C39.6838 79.5833 39.4181 81.026 39.4181 82.7031V82.7188C39.4181 84.3854 39.6838 85.8333 40.215 87.0625C40.7463 88.2812 41.4963 89.2292 42.465 89.9062C43.4442 90.5729 44.5848 90.9062 45.8869 90.9062C46.8452 90.9062 47.6994 90.7396 48.4494 90.4062C49.2098 90.0625 49.8504 89.5677 50.3713 88.9219C50.8921 88.276 51.2723 87.4896 51.5119 86.5625L51.5588 86.4062H55.5119L55.4806 86.5781C55.2931 88.1094 54.7671 89.4635 53.9025 90.6406C53.0379 91.8177 51.9181 92.7396 50.5431 93.4062C49.1681 94.0625 47.616 94.3906 45.8869 94.3906ZM55.5519 94L63.6144 71.4531H67.005V75.4688H65.8331L59.7706 94H55.5519ZM59.63 88.1719L60.7081 85.0625H71.0363L72.1144 88.1719H59.63ZM71.9738 94L65.9113 75.4688V71.4531H68.1456L76.1925 94H71.9738ZM77.6544 94V71.4531H81.6856V90.6094H91.9044V94H77.6544ZM93.8506 94V71.4531H108.444V74.8438H97.8819V80.9219H107.866V84.1719H97.8819V90.6094H108.444V94H93.8506Z" fill="#101010"/>
<path d="M129.156 94V84.2969L121.156 71.4531H124.359L130.515 81.5781H130.609L136.765 71.4531H139.968L131.968 84.2969V94H129.156ZM149.399 94.375C147.263 94.375 145.414 93.901 143.852 92.9531C142.3 92.0052 141.102 90.6615 140.258 88.9219C139.414 87.1823 138.993 85.1198 138.993 82.7344V82.7031C138.993 80.3177 139.414 78.2604 140.258 76.5312C141.112 74.7917 142.315 73.4479 143.868 72.5C145.43 71.5521 147.274 71.0781 149.399 71.0781C151.524 71.0781 153.362 71.5521 154.914 72.5C156.466 73.4479 157.664 74.7917 158.508 76.5312C159.352 78.2604 159.774 80.3177 159.774 82.7031V82.7344C159.774 85.1198 159.352 87.1823 158.508 88.9219C157.664 90.6615 156.466 92.0052 154.914 92.9531C153.373 93.901 151.534 94.375 149.399 94.375ZM149.399 91.7812C150.951 91.7812 152.284 91.4115 153.399 90.6719C154.524 89.9219 155.388 88.8698 155.993 87.5156C156.597 86.1615 156.899 84.5677 156.899 82.7344V82.7031C156.899 80.8594 156.591 79.2604 155.977 77.9062C155.373 76.5521 154.508 75.5104 153.383 74.7812C152.258 74.0417 150.93 73.6719 149.399 73.6719C147.868 73.6719 146.534 74.0417 145.399 74.7812C144.274 75.5104 143.404 76.5521 142.789 77.9062C142.175 79.25 141.868 80.849 141.868 82.7031V82.7344C141.868 84.5781 142.175 86.1771 142.789 87.5312C143.404 88.8854 144.274 89.9323 145.399 90.6719C146.524 91.4115 147.857 91.7812 149.399 91.7812ZM171.283 94.375C169.418 94.375 167.814 94.026 166.47 93.3281C165.137 92.6302 164.111 91.6615 163.392 90.4219C162.673 89.1719 162.314 87.7292 162.314 86.0938V71.4531H165.126V85.9062C165.126 87.0625 165.366 88.0833 165.845 88.9688C166.335 89.8438 167.038 90.5312 167.954 91.0312C168.871 91.5312 169.98 91.7812 171.283 91.7812C172.585 91.7812 173.689 91.5312 174.595 91.0312C175.512 90.5312 176.21 89.8438 176.689 88.9688C177.168 88.0833 177.408 87.0625 177.408 85.9062V71.4531H180.22V86.0938C180.22 87.7292 179.861 89.1719 179.142 90.4219C178.434 91.6615 177.413 92.6302 176.079 93.3281C174.746 94.026 173.147 94.375 171.283 94.375ZM183.635 94V71.4531H192.088C193.536 71.4531 194.796 71.7344 195.869 72.2969C196.953 72.849 197.791 73.6302 198.385 74.6406C198.979 75.6406 199.276 76.8177 199.276 78.1719V78.2031C199.276 79.7656 198.869 81.1198 198.057 82.2656C197.255 83.401 196.151 84.1927 194.744 84.6406L199.963 94H196.666L191.838 85.0781C191.807 85.0781 191.776 85.0781 191.744 85.0781C191.724 85.0781 191.697 85.0781 191.666 85.0781H186.447V94H183.635ZM186.447 82.5938H191.838C193.286 82.5938 194.401 82.2188 195.182 81.4688C195.974 80.7188 196.369 79.651 196.369 78.2656V78.2344C196.369 76.8906 195.953 75.8438 195.119 75.0938C194.296 74.3333 193.161 73.9531 191.713 73.9531H186.447V82.5938ZM207.465 94V71.4531H210.277V81.2031H222.652V71.4531H225.465V94H222.652V83.7344H210.277V94H207.465ZM228.88 94V71.4531H231.692V94H228.88ZM244.561 94.375C242.988 94.375 241.566 94.1042 240.295 93.5625C239.024 93.0104 237.936 92.2188 237.029 91.1875C236.134 90.1562 235.441 88.9167 234.951 87.4688C234.472 86.0208 234.232 84.401 234.232 82.6094V82.5938C234.232 80.2396 234.654 78.2031 235.498 76.4844C236.352 74.7656 237.55 73.4375 239.092 72.5C240.644 71.5521 242.467 71.0781 244.561 71.0781C246.29 71.0781 247.785 71.3854 249.045 72C250.316 72.6042 251.357 73.4323 252.17 74.4844C252.982 75.526 253.561 76.7135 253.904 78.0469L253.982 78.3438H251.029L250.967 78.1719C250.446 76.7448 249.644 75.6406 248.561 74.8594C247.477 74.0677 246.144 73.6719 244.561 73.6719C243.019 73.6719 241.691 74.0312 240.576 74.75C239.462 75.4583 238.602 76.4792 237.998 77.8125C237.404 79.1458 237.107 80.7396 237.107 82.5938V82.6094C237.107 84.026 237.279 85.3021 237.623 86.4375C237.967 87.5625 238.462 88.526 239.107 89.3281C239.764 90.1198 240.55 90.7292 241.467 91.1562C242.384 91.5729 243.415 91.7812 244.561 91.7812C245.894 91.7812 247.066 91.5156 248.076 90.9844C249.097 90.4427 249.889 89.6927 250.451 88.7344C251.024 87.776 251.311 86.6667 251.311 85.4062V85H244.951V82.5312H254.123V84.6719C254.123 86.1927 253.904 87.5521 253.467 88.75C253.04 89.9479 252.415 90.9688 251.592 91.8125C250.769 92.6458 249.764 93.2812 248.576 93.7188C247.399 94.1562 246.061 94.375 244.561 94.375ZM256.773 94V71.4531H259.585V81.2031H271.96V71.4531H274.773V94H271.96V83.7344H259.585V94H256.773Z" fill="white"/>
<path d="M129.156 94V84.2969L121.156 71.4531H124.359L130.515 81.5781H130.609L136.765 71.4531H139.968L131.968 84.2969V94H129.156ZM149.399 94.375C147.263 94.375 145.414 93.901 143.852 92.9531C142.3 92.0052 141.102 90.6615 140.258 88.9219C139.414 87.1823 138.993 85.1198 138.993 82.7344V82.7031C138.993 80.3177 139.414 78.2604 140.258 76.5312C141.112 74.7917 142.315 73.4479 143.868 72.5C145.43 71.5521 147.274 71.0781 149.399 71.0781C151.524 71.0781 153.362 71.5521 154.914 72.5C156.466 73.4479 157.664 74.7917 158.508 76.5312C159.352 78.2604 159.774 80.3177 159.774 82.7031V82.7344C159.774 85.1198 159.352 87.1823 158.508 88.9219C157.664 90.6615 156.466 92.0052 154.914 92.9531C153.373 93.901 151.534 94.375 149.399 94.375ZM149.399 91.7812C150.951 91.7812 152.284 91.4115 153.399 90.6719C154.524 89.9219 155.388 88.8698 155.993 87.5156C156.597 86.1615 156.899 84.5677 156.899 82.7344V82.7031C156.899 80.8594 156.591 79.2604 155.977 77.9062C155.373 76.5521 154.508 75.5104 153.383 74.7812C152.258 74.0417 150.93 73.6719 149.399 73.6719C147.868 73.6719 146.534 74.0417 145.399 74.7812C144.274 75.5104 143.404 76.5521 142.789 77.9062C142.175 79.25 141.868 80.849 141.868 82.7031V82.7344C141.868 84.5781 142.175 86.1771 142.789 87.5312C143.404 88.8854 144.274 89.9323 145.399 90.6719C146.524 91.4115 147.857 91.7812 149.399 91.7812ZM171.283 94.375C169.418 94.375 167.814 94.026 166.47 93.3281C165.137 92.6302 164.111 91.6615 163.392 90.4219C162.673 89.1719 162.314 87.7292 162.314 86.0938V71.4531H165.126V85.9062C165.126 87.0625 165.366 88.0833 165.845 88.9688C166.335 89.8438 167.038 90.5312 167.954 91.0312C168.871 91.5312 169.98 91.7812 171.283 91.7812C172.585 91.7812 173.689 91.5312 174.595 91.0312C175.512 90.5312 176.21 89.8438 176.689 88.9688C177.168 88.0833 177.408 87.0625 177.408 85.9062V71.4531H180.22V86.0938C180.22 87.7292 179.861 89.1719 179.142 90.4219C178.434 91.6615 177.413 92.6302 176.079 93.3281C174.746 94.026 173.147 94.375 171.283 94.375ZM183.635 94V71.4531H192.088C193.536 71.4531 194.796 71.7344 195.869 72.2969C196.953 72.849 197.791 73.6302 198.385 74.6406C198.979 75.6406 199.276 76.8177 199.276 78.1719V78.2031C199.276 79.7656 198.869 81.1198 198.057 82.2656C197.255 83.401 196.151 84.1927 194.744 84.6406L199.963 94H196.666L191.838 85.0781C191.807 85.0781 191.776 85.0781 191.744 85.0781C191.724 85.0781 191.697 85.0781 191.666 85.0781H186.447V94H183.635ZM186.447 82.5938H191.838C193.286 82.5938 194.401 82.2188 195.182 81.4688C195.974 80.7188 196.369 79.651 196.369 78.2656V78.2344C196.369 76.8906 195.953 75.8438 195.119 75.0938C194.296 74.3333 193.161 73.9531 191.713 73.9531H186.447V82.5938ZM207.465 94V71.4531H210.277V81.2031H222.652V71.4531H225.465V94H222.652V83.7344H210.277V94H207.465ZM228.88 94V71.4531H231.692V94H228.88ZM244.561 94.375C242.988 94.375 241.566 94.1042 240.295 93.5625C239.024 93.0104 237.936 92.2188 237.029 91.1875C236.134 90.1562 235.441 88.9167 234.951 87.4688C234.472 86.0208 234.232 84.401 234.232 82.6094V82.5938C234.232 80.2396 234.654 78.2031 235.498 76.4844C236.352 74.7656 237.55 73.4375 239.092 72.5C240.644 71.5521 242.467 71.0781 244.561 71.0781C246.29 71.0781 247.785 71.3854 249.045 72C250.316 72.6042 251.357 73.4323 252.17 74.4844C252.982 75.526 253.561 76.7135 253.904 78.0469L253.982 78.3438H251.029L250.967 78.1719C250.446 76.7448 249.644 75.6406 248.561 74.8594C247.477 74.0677 246.144 73.6719 244.561 73.6719C243.019 73.6719 241.691 74.0312 240.576 74.75C239.462 75.4583 238.602 76.4792 237.998 77.8125C237.404 79.1458 237.107 80.7396 237.107 82.5938V82.6094C237.107 84.026 237.279 85.3021 237.623 86.4375C237.967 87.5625 238.462 88.526 239.107 89.3281C239.764 90.1198 240.55 90.7292 241.467 91.1562C242.384 91.5729 243.415 91.7812 244.561 91.7812C245.894 91.7812 247.066 91.5156 248.076 90.9844C249.097 90.4427 249.889 89.6927 250.451 88.7344C251.024 87.776 251.311 86.6667 251.311 85.4062V85H244.951V82.5312H254.123V84.6719C254.123 86.1927 253.904 87.5521 253.467 88.75C253.04 89.9479 252.415 90.9688 251.592 91.8125C250.769 92.6458 249.764 93.2812 248.576 93.7188C247.399 94.1562 246.061 94.375 244.561 94.375ZM256.773 94V71.4531H259.585V81.2031H271.96V71.4531H274.773V94H271.96V83.7344H259.585V94H256.773Z" fill="url(#paint1_radial_2_8)"/>
<path d="M90.5444 129V108.984H83.435V106.453H100.466V108.984H93.3569V129H90.5444ZM102.475 129V106.453H105.287V129H102.475ZM118.124 129.375C116.041 129.375 114.223 128.896 112.671 127.938C111.13 126.979 109.937 125.63 109.093 123.891C108.249 122.141 107.827 120.083 107.827 117.719V117.703C107.827 115.339 108.249 113.286 109.093 111.547C109.937 109.807 111.13 108.464 112.671 107.516C114.213 106.557 116.031 106.078 118.124 106.078C119.687 106.078 121.109 106.375 122.39 106.969C123.671 107.562 124.739 108.391 125.593 109.453C126.458 110.516 127.031 111.76 127.312 113.188L127.343 113.344H124.499L124.39 113C124.098 112.083 123.661 111.307 123.077 110.672C122.505 110.026 121.801 109.531 120.968 109.188C120.135 108.844 119.187 108.672 118.124 108.672C116.624 108.672 115.317 109.047 114.202 109.797C113.098 110.536 112.239 111.583 111.624 112.938C111.02 114.281 110.718 115.87 110.718 117.703V117.719C110.718 119.542 111.02 121.135 111.624 122.5C112.239 123.854 113.104 124.906 114.218 125.656C115.333 126.406 116.635 126.781 118.124 126.781C119.176 126.781 120.114 126.609 120.937 126.266C121.77 125.922 122.484 125.417 123.077 124.75C123.671 124.073 124.13 123.24 124.452 122.25L124.499 122.109H127.343L127.312 122.266C127.031 123.703 126.463 124.958 125.609 126.031C124.755 127.094 123.687 127.917 122.406 128.5C121.124 129.083 119.697 129.375 118.124 129.375ZM132.289 121.375V117.516H132.617L142.18 106.453H145.711L136.742 116.625H136.602L132.289 121.375ZM129.711 129V106.453H132.524V129H129.711ZM142.946 129L134.774 118.25L136.758 116.25L146.539 129H142.946ZM147.97 129V106.453H161.939V108.984H150.782V116.219H161.361V118.719H150.782V126.469H161.939V129H147.97ZM170.401 129V108.984H163.291V106.453H180.322V108.984H173.213V129H170.401ZM197.465 129.375C195.33 129.375 193.481 128.901 191.918 127.953C190.366 127.005 189.168 125.661 188.324 123.922C187.481 122.182 187.059 120.12 187.059 117.734V117.703C187.059 115.318 187.481 113.26 188.324 111.531C189.179 109.792 190.382 108.448 191.934 107.5C193.496 106.552 195.34 106.078 197.465 106.078C199.59 106.078 201.429 106.552 202.981 107.5C204.533 108.448 205.731 109.792 206.574 111.531C207.418 113.26 207.84 115.318 207.84 117.703V117.734C207.84 120.12 207.418 122.182 206.574 123.922C205.731 125.661 204.533 127.005 202.981 127.953C201.439 128.901 199.6 129.375 197.465 129.375ZM197.465 126.781C199.017 126.781 200.35 126.411 201.465 125.672C202.59 124.922 203.455 123.87 204.059 122.516C204.663 121.161 204.965 119.568 204.965 117.734V117.703C204.965 115.859 204.658 114.26 204.043 112.906C203.439 111.552 202.574 110.51 201.449 109.781C200.324 109.042 198.996 108.672 197.465 108.672C195.934 108.672 194.6 109.042 193.465 109.781C192.34 110.51 191.47 111.552 190.856 112.906C190.241 114.25 189.934 115.849 189.934 117.703V117.734C189.934 119.578 190.241 121.177 190.856 122.531C191.47 123.885 192.34 124.932 193.465 125.672C194.59 126.411 195.923 126.781 197.465 126.781ZM210.38 129V106.453H224.067V108.984H213.192V116.734H223.177V119.234H213.192V129H210.38ZM226.326 129V106.453H240.014V108.984H229.139V116.734H239.123V119.234H229.139V129H226.326ZM242.272 129V106.453H256.241V108.984H245.085V116.219H255.663V118.719H245.085V126.469H256.241V129H242.272ZM259 129V106.453H267.453C268.901 106.453 270.161 106.734 271.234 107.297C272.318 107.849 273.156 108.63 273.75 109.641C274.344 110.641 274.641 111.818 274.641 113.172V113.203C274.641 114.766 274.234 116.12 273.422 117.266C272.62 118.401 271.516 119.193 270.109 119.641L275.328 129H272.031L267.203 120.078C267.172 120.078 267.141 120.078 267.109 120.078C267.089 120.078 267.062 120.078 267.031 120.078H261.812V129H259ZM261.812 117.594H267.203C268.651 117.594 269.766 117.219 270.547 116.469C271.339 115.719 271.734 114.651 271.734 113.266V113.234C271.734 111.891 271.318 110.844 270.484 110.094C269.661 109.333 268.526 108.953 267.078 108.953H261.812V117.594Z" fill="white"/>
<path d="M90.5444 129V108.984H83.435V106.453H100.466V108.984H93.3569V129H90.5444ZM102.475 129V106.453H105.287V129H102.475ZM118.124 129.375C116.041 129.375 114.223 128.896 112.671 127.938C111.13 126.979 109.937 125.63 109.093 123.891C108.249 122.141 107.827 120.083 107.827 117.719V117.703C107.827 115.339 108.249 113.286 109.093 111.547C109.937 109.807 111.13 108.464 112.671 107.516C114.213 106.557 116.031 106.078 118.124 106.078C119.687 106.078 121.109 106.375 122.39 106.969C123.671 107.562 124.739 108.391 125.593 109.453C126.458 110.516 127.031 111.76 127.312 113.188L127.343 113.344H124.499L124.39 113C124.098 112.083 123.661 111.307 123.077 110.672C122.505 110.026 121.801 109.531 120.968 109.188C120.135 108.844 119.187 108.672 118.124 108.672C116.624 108.672 115.317 109.047 114.202 109.797C113.098 110.536 112.239 111.583 111.624 112.938C111.02 114.281 110.718 115.87 110.718 117.703V117.719C110.718 119.542 111.02 121.135 111.624 122.5C112.239 123.854 113.104 124.906 114.218 125.656C115.333 126.406 116.635 126.781 118.124 126.781C119.176 126.781 120.114 126.609 120.937 126.266C121.77 125.922 122.484 125.417 123.077 124.75C123.671 124.073 124.13 123.24 124.452 122.25L124.499 122.109H127.343L127.312 122.266C127.031 123.703 126.463 124.958 125.609 126.031C124.755 127.094 123.687 127.917 122.406 128.5C121.124 129.083 119.697 129.375 118.124 129.375ZM132.289 121.375V117.516H132.617L142.18 106.453H145.711L136.742 116.625H136.602L132.289 121.375ZM129.711 129V106.453H132.524V129H129.711ZM142.946 129L134.774 118.25L136.758 116.25L146.539 129H142.946ZM147.97 129V106.453H161.939V108.984H150.782V116.219H161.361V118.719H150.782V126.469H161.939V129H147.97ZM170.401 129V108.984H163.291V106.453H180.322V108.984H173.213V129H170.401ZM197.465 129.375C195.33 129.375 193.481 128.901 191.918 127.953C190.366 127.005 189.168 125.661 188.324 123.922C187.481 122.182 187.059 120.12 187.059 117.734V117.703C187.059 115.318 187.481 113.26 188.324 111.531C189.179 109.792 190.382 108.448 191.934 107.5C193.496 106.552 195.34 106.078 197.465 106.078C199.59 106.078 201.429 106.552 202.981 107.5C204.533 108.448 205.731 109.792 206.574 111.531C207.418 113.26 207.84 115.318 207.84 117.703V117.734C207.84 120.12 207.418 122.182 206.574 123.922C205.731 125.661 204.533 127.005 202.981 127.953C201.439 128.901 199.6 129.375 197.465 129.375ZM197.465 126.781C199.017 126.781 200.35 126.411 201.465 125.672C202.59 124.922 203.455 123.87 204.059 122.516C204.663 121.161 204.965 119.568 204.965 117.734V117.703C204.965 115.859 204.658 114.26 204.043 112.906C203.439 111.552 202.574 110.51 201.449 109.781C200.324 109.042 198.996 108.672 197.465 108.672C195.934 108.672 194.6 109.042 193.465 109.781C192.34 110.51 191.47 111.552 190.856 112.906C190.241 114.25 189.934 115.849 189.934 117.703V117.734C189.934 119.578 190.241 121.177 190.856 122.531C191.47 123.885 192.34 124.932 193.465 125.672C194.59 126.411 195.923 126.781 197.465 126.781ZM210.38 129V106.453H224.067V108.984H213.192V116.734H223.177V119.234H213.192V129H210.38ZM226.326 129V106.453H240.014V108.984H229.139V116.734H239.123V119.234H229.139V129H226.326ZM242.272 129V106.453H256.241V108.984H245.085V116.219H255.663V118.719H245.085V126.469H256.241V129H242.272ZM259 129V106.453H267.453C268.901 106.453 270.161 106.734 271.234 107.297C272.318 107.849 273.156 108.63 273.75 109.641C274.344 110.641 274.641 111.818 274.641 113.172V113.203C274.641 114.766 274.234 116.12 273.422 117.266C272.62 118.401 271.516 119.193 270.109 119.641L275.328 129H272.031L267.203 120.078C267.172 120.078 267.141 120.078 267.109 120.078C267.089 120.078 267.062 120.078 267.031 120.078H261.812V129H259ZM261.812 117.594H267.203C268.651 117.594 269.766 117.219 270.547 116.469C271.339 115.719 271.734 114.651 271.734 113.266V113.234C271.734 111.891 271.318 110.844 270.484 110.094C269.661 109.333 268.526 108.953 267.078 108.953H261.812V117.594Z" fill="url(#paint2_radial_2_8)"/>
<defs>
<radialGradient id="paint0_radial_2_8" cx="0" cy="0" r="1" gradientUnits="userSpaceOnUse" gradientTransform="translate(85.5 32) rotate(19.1356) scale(158.417 286.615)">
<stop stop-color="white"/>
<stop offset="1" stop-color="#363541"/>
</radialGradient>
<radialGradient id="paint1_radial_2_8" cx="0" cy="0" r="1" gradientUnits="userSpaceOnUse" gradientTransform="translate(198 83) rotate(10.7674) scale(138.982 149.019)">
<stop stop-color="white"/>
<stop offset="1" stop-color="#363541"/>
</radialGradient>
<radialGradient id="paint2_radial_2_8" cx="0" cy="0" r="1" gradientUnits="userSpaceOnUse" gradientTransform="translate(179 118) rotate(8.69433) scale(171.768 149.946)">
<stop stop-color="white"/>
<stop offset="1" stop-color="#363541"/>
</radialGradient>
</defs>
</svg>
