<svg width="1050" height="212" viewBox="0 0 1050 212" fill="none" xmlns="http://www.w3.org/2000/svg">
<g clip-path="url(#clip0_342_589)">
<path d="M149.72 9.79582L14.6626 54.171C5.86006 57.0633 1.60644 67.0352 5.61129 75.3906C9.26834 83.0203 18.4093 86.2526 26.0496 82.6177L48.8526 71.7691C51.2344 70.636 53.7206 69.7372 56.2764 69.0855L80.1069 63.0084C99.403 58.0877 119.188 55.3383 139.095 54.8116L180.179 53.7244C211.616 52.8925 242.467 62.3279 268.061 80.6014C275.081 85.6133 281.638 91.243 287.655 97.4232L335.663 146.737C339.273 150.445 342.407 154.59 344.991 159.075C357.629 181.009 382.297 193.099 407.375 189.649L482.045 179.376L627.162 139.382L736.877 92.4903C767.489 79.4067 801.89 78.2555 833.309 89.2635C847.377 94.1925 860.519 101.447 872.186 110.725L984.323 199.898C1004.34 215.815 1033.97 208.808 1044.74 185.612C1053.04 167.749 1046.91 146.506 1030.37 135.808L994.206 112.411L938.915 82.2519C848.65 33.0163 741.95 23.626 644.473 56.3393L476.809 112.607C415.862 133.061 348.634 113.096 308.729 62.6933L303.401 55.964C266.917 9.88113 205.561 -8.5513 149.72 9.79582Z" fill="#124D40"/>
</g>
<defs>
<clipPath id="clip0_342_589">
<rect width="1050" height="212" fill="white"/>
</clipPath>
</defs>
</svg>